<svg height="512" viewBox="0 0 512 512" width="512" xmlns="http://www.w3.org/2000/svg"><g id="Outline"><path d="m464 56h-416a32.036 32.036 0 0 0 -32 32v272a32.036 32.036 0 0 0 32 32h149.058l-4.364 48h-24.694v16h176v-16h-24.694l-4.364-48h149.058a32.036 32.036 0 0 0 32-32v-272a32.036 32.036 0 0 0 -32-32zm-416 16h416a16.019 16.019 0 0 1 16 16v224h-448v-224a16.019 16.019 0 0 1 16-16zm255.24 368h-94.48l4.364-48h85.752zm160.76-64h-416a16.019 16.019 0 0 1 -16-16v-32h448v32a16.019 16.019 0 0 1 -16 16z"/><path d="m248 344h16v16h-16z"/><path d="m200 189.255h112v16h-112z" transform="matrix(.707 -.707 .707 .707 -64.5 238.794)"/><path d="m246.627 211.882h64v16h-64z" transform="matrix(.707 -.707 .707 .707 -73.872 261.421)"/><path d="m201.373 166.628h64v16h-64z" transform="matrix(.707 -.707 .707 .707 -55.127 216.167)"/></g></svg>